<?xml version="1.0" standalone="no"?>
<!DOCTYPE svg PUBLIC "-//W3C//DTD SVG 20010904//EN"
 "http://www.w3.org/TR/2001/REC-SVG-20010904/DTD/svg10.dtd">
<svg version="1.0" xmlns="http://www.w3.org/2000/svg"
 width="620.000000pt" height="461.000000pt" viewBox="0 0 620.000000 461.000000"
 preserveAspectRatio="xMidYMid meet">
<metadata>
Created by potrace 1.15, written by Peter Selinger 2001-2017
</metadata>
<g transform="translate(0.000000,461.000000) scale(0.100000,-0.100000)"
fill="#000000" stroke="none">
<path d="M3230 4573 c-199 -19 -410 -76 -539 -144 l-94 -49 -883 0 -884 0 0
-1660 0 -1660 920 0 920 0 0 230 c0 127 3 230 7 230 12 0 139 -74 236 -138
282 -184 466 -395 505 -577 6 -27 13 -97 16 -155 16 -310 150 -502 393 -565
80 -21 204 -19 297 5 113 29 190 73 277 160 91 91 148 194 186 338 23 87 26
116 26 277 1 126 -4 210 -16 280 -16 90 -49 243 -63 287 -5 16 36 17 618 20
617 3 624 4 682 26 355 134 451 578 180 832 l-63 59 24 43 c59 102 81 252 54
368 -23 99 -97 213 -182 277 l-27 21 25 43 c135 235 53 548 -179 679 -43 24
-56 37 -51 49 41 105 50 287 20 401 -43 165 -148 276 -300 316 -40 11 -245 13
-1060 12 -555 -1 -1026 -3 -1045 -5z m2079 -317 c40 -39 54 -85 55 -177 0 -60
-5 -86 -25 -125 -36 -74 -64 -84 -232 -84 -157 0 -195 -10 -227 -62 -25 -41
-27 -119 -4 -158 37 -61 54 -65 341 -70 l261 -5 44 -30 c133 -94 122 -282 -21
-357 l-53 -28 -210 0 c-234 0 -264 -6 -299 -64 -30 -49 -26 -126 8 -167 48
-56 66 -59 358 -59 289 0 311 -3 368 -58 89 -84 89 -220 0 -304 -56 -54 -81
-58 -340 -58 -207 0 -243 -2 -273 -18 -97 -49 -97 -201 0 -253 32 -17 61 -19
340 -19 l306 0 53 -26 c58 -29 93 -74 111 -141 22 -86 -27 -185 -113 -228
l-51 -25 -783 0 c-431 0 -783 -3 -783 -6 0 -4 24 -81 54 -173 98 -303 136
-495 136 -691 0 -245 -71 -403 -215 -478 -43 -23 -62 -27 -135 -27 -183 0
-244 81 -261 349 -11 170 -47 289 -130 422 -61 98 -214 265 -327 355 -138 111
-363 252 -534 335 l-58 28 0 1098 0 1098 35 39 c46 50 167 113 281 146 187 53
189 53 1281 52 l1012 -2 30 -29z m-2929 -1536 l0 -1370 -630 0 -630 0 0 1370
0 1370 630 0 630 0 0 -1370z"/>
</g>
</svg>
