<?xml version="1.0" standalone="no"?>
<!DOCTYPE svg PUBLIC "-//W3C//DTD SVG 20010904//EN"
 "http://www.w3.org/TR/2001/REC-SVG-20010904/DTD/svg10.dtd">
<svg version="1.0" xmlns="http://www.w3.org/2000/svg"
 width="445.000000pt" height="395.000000pt" viewBox="0 0 445.000000 395.000000"
 preserveAspectRatio="xMidYMid meet">
<metadata>
Created by potrace 1.15, written by Peter Selinger 2001-2017
</metadata>
<g transform="translate(0.000000,395.000000) scale(0.100000,-0.100000)"
fill="#000000" stroke="none">
<path d="M1185 3809 c-252 -28 -509 -159 -695 -355 -230 -242 -353 -559 -353
-914 0 -279 71 -525 212 -733 221 -328 803 -865 1571 -1449 206 -157 216 -162
305 -162 89 0 99 5 305 162 768 584 1350 1121 1571 1449 213 316 271 749 153
1142 -166 551 -683 916 -1219 861 -300 -31 -575 -178 -771 -413 l-40 -48 -49
61 c-234 282 -624 440 -990 399z m345 -205 c154 -41 296 -119 417 -228 34 -31
110 -119 168 -196 58 -77 108 -140 110 -140 3 0 50 61 105 135 148 197 279
309 448 380 140 58 201 70 367 69 133 -1 160 -4 239 -28 429 -130 723 -527
743 -1002 12 -287 -62 -527 -234 -756 -87 -116 -345 -383 -533 -553 -372 -336
-1085 -905 -1135 -905 -50 0 -761 567 -1135 905 -188 170 -446 437 -533 553
-172 229 -246 469 -234 756 6 150 35 278 91 407 141 328 423 560 753 619 74
14 288 4 363 -16z"/>
</g>
</svg>
