<?xml version="1.0" standalone="no"?>
<!DOCTYPE svg PUBLIC "-//W3C//DTD SVG 20010904//EN"
 "http://www.w3.org/TR/2001/REC-SVG-20010904/DTD/svg10.dtd">
<svg version="1.0" xmlns="http://www.w3.org/2000/svg"
 width="659.000000pt" height="600.000000pt" viewBox="0 0 659.000000 600.000000"
 preserveAspectRatio="xMidYMid meet">
<metadata>
Created by potrace 1.15, written by Peter Selinger 2001-2017
</metadata>
<g transform="translate(0.000000,600.000000) scale(0.100000,-0.100000)"
fill="#000000" stroke="none">
<path d="M3380 5931 c-171 -24 -333 -130 -422 -277 -74 -121 -102 -231 -113
-439 -35 -708 -154 -1121 -470 -1626 l-78 -125 -56 37 c-110 72 -82 70 -807
67 l-649 -3 -67 -32 c-88 -41 -160 -113 -201 -201 l-32 -67 0 -1365 0 -1365
32 -66 c41 -83 120 -159 210 -202 l68 -32 628 -3 c539 -2 637 -1 689 13 66 17
132 52 167 89 l22 24 72 -54 c138 -104 299 -165 512 -196 69 -10 351 -13 1230
-13 1079 0 1142 1 1176 18 55 27 221 188 292 283 79 105 137 214 176 328 22
66 37 95 59 112 37 30 119 149 167 244 79 157 115 308 115 481 l0 109 48 60
c58 72 143 231 178 332 52 153 68 348 40 493 l-14 69 52 87 c211 349 139 765
-169 984 -129 92 -34 85 -1029 85 l-879 0 7 63 c23 216 28 346 23 577 -7 350
-41 564 -129 818 -110 321 -261 518 -481 628 -112 57 -248 81 -367 65z m154
-437 c75 -26 156 -108 210 -214 194 -375 249 -1000 142 -1617 -13 -74 -14
-101 -5 -138 16 -63 59 -118 111 -144 44 -21 45 -21 1005 -21 l961 0 43 -33
c50 -37 86 -102 95 -168 8 -61 -15 -139 -65 -217 l-41 -62 -481 0 c-352 0
-493 -3 -523 -12 -51 -16 -119 -82 -136 -133 -31 -95 10 -201 99 -253 l46 -27
478 -3 477 -3 0 -57 c0 -79 -24 -173 -67 -264 l-36 -78 -401 0 c-221 0 -418
-4 -439 -9 -166 -39 -224 -258 -96 -365 65 -55 72 -56 429 -56 l330 0 0 -68
c0 -87 -21 -168 -68 -262 l-37 -75 -290 -5 c-316 -5 -320 -6 -377 -67 -74 -77
-76 -205 -5 -281 60 -64 68 -67 260 -72 l177 -5 -44 -65 c-24 -36 -75 -95
-113 -132 l-68 -67 -1010 -2 c-1031 -2 -1136 1 -1280 37 -76 19 -151 63 -282
167 l-103 82 0 1055 0 1055 51 70 c80 109 251 369 314 479 284 497 428 984
465 1579 15 249 26 312 59 372 31 56 87 95 137 95 17 0 52 -7 78 -16z m-1534
-3589 l0 -1245 -550 0 -550 0 0 1245 0 1245 550 0 550 0 0 -1245z"/>
</g>
</svg>
